<?xml version="1.0" encoding="UTF-8"?>
<svg version="1.1" xmlns="http://www.w3.org/2000/svg" width="578" height="570">
<path d="M0 0 C1.00941947 -0.00226556 2.01883895 -0.00453111 3.05884689 -0.00686532 C6.40992497 -0.01314837 9.76096201 -0.01237964 13.11204529 -0.0115509 C15.52778169 -0.014546 17.94351762 -0.01794933 20.35925293 -0.02172852 C26.2225732 -0.02962464 32.085884 -0.03278169 37.94920851 -0.03334089 C42.72186694 -0.03381793 47.49452209 -0.035882 52.26717949 -0.03904152 C65.83471664 -0.04783881 79.40224591 -0.05246247 92.96978594 -0.05171105 C93.69961238 -0.05167109 94.42943883 -0.05163113 95.18138123 -0.05158997 C95.91211158 -0.05154909 96.64284194 -0.0515082 97.39571565 -0.05146609 C109.2230798 -0.05106012 121.05041204 -0.06061947 132.87776697 -0.07472833 C145.05747805 -0.08914141 157.23717361 -0.09599578 169.41689342 -0.09513456 C176.24053385 -0.09480423 183.06414083 -0.09747846 189.88777351 -0.10831261 C196.31221037 -0.11805316 202.73657701 -0.11803222 209.16101646 -0.11079597 C211.50618722 -0.10975742 213.85136249 -0.11206914 216.19652557 -0.11815643 C232.92564777 -0.15873403 249.50260655 0.22770712 265.82078552 4.32121277 C266.68856628 4.53479431 267.55634705 4.74837585 268.45042419 4.96842957 C294.03144901 11.51629918 318.5538988 23.58558292 338.38328552 41.13371277 C338.87280701 41.56297058 339.36232849 41.99222839 339.86668396 42.43449402 C355.87959756 56.52829495 368.46473071 72.4979938 378.42381287 91.32902527 C379.27037566 92.9213388 380.14687695 94.49765756 381.02781677 96.07121277 C396.63120721 125.05481928 398.70675127 157.93874316 398.64207458 190.12980652 C398.64479319 192.44215504 398.64835895 194.7545027 398.6526947 197.06684875 C398.66171764 203.27759094 398.65831665 209.48826577 398.65193653 215.69900894 C398.64682368 222.24161695 398.65158251 228.78421973 398.65470886 235.326828 C398.65896174 247.00827465 398.6524034 258.68969332 398.64219019 270.37113512 C398.63325754 280.91342856 398.63481047 291.45567793 398.64402771 301.99797058 C398.654786 314.30821168 398.65868557 326.61842477 398.65280318 338.92866993 C398.64970741 345.42027657 398.64920752 351.91185302 398.65587616 358.40345764 C398.66171304 364.51042024 398.65753846 370.61730075 398.64608765 376.72425461 C398.64347461 378.9468103 398.64414753 381.16937307 398.64861298 383.39192581 C398.68254701 402.01902375 398.35940405 420.88523669 393.63328552 439.00871277 C393.36725525 440.05913757 393.10122498 441.10956238 392.82713318 442.19181824 C383.92299604 476.40411127 364.09344648 509.58972881 335.88328552 531.44621277 C335.28435486 531.91132263 334.68542419 532.3764325 334.06834412 532.8556366 C303.05369031 556.64212842 266.15703627 570.33327364 226.88682556 570.26742554 C225.87826051 570.26969109 224.86969546 570.27195665 223.83056784 570.27429086 C220.47638371 570.2805828 217.12224049 570.27980459 213.76805115 570.27897644 C211.35246224 570.281971 208.93687381 570.28537422 206.52128601 570.28915405 C200.65448652 570.29705521 194.7876965 570.3002075 188.92089278 570.30076643 C184.14535001 570.30124326 179.36981053 570.30330629 174.5942688 570.30646706 C161.0208235 570.31526643 147.44738608 570.31988776 133.8739379 570.31913658 C132.77835013 570.31907665 132.77835013 570.31907665 131.66062927 570.3190155 C130.92933341 570.31897462 130.19803755 570.31893374 129.44458121 570.31889162 C117.61068696 570.31848575 105.77682461 570.32804232 93.94293958 570.34215387 C81.75874011 570.3565671 69.57455615 570.36342129 57.39034796 570.36256009 C50.56333918 570.36222974 43.73636383 570.36490507 36.90936279 570.37573814 C30.48083532 570.38547895 24.05237802 570.38545758 17.62384796 570.37822151 C15.2770655 570.37718295 12.93027852 570.37949475 10.58350372 570.38558197 C-6.92248282 570.42801397 -23.91929831 569.7382754 -40.99171448 565.50871277 C-42.04552307 565.25001404 -43.09933167 564.99131531 -44.18507385 564.72477722 C-87.46313938 553.63428321 -125.27755567 524.84197878 -148.13624573 486.52433777 C-163.34916701 460.09966878 -171.78529849 431.02857295 -171.75715637 400.46762085 C-171.76012749 399.44075474 -171.76309862 398.41388862 -171.76615977 397.35590535 C-171.77478148 393.93962894 -171.77634947 390.52338784 -171.77784729 387.10710144 C-171.7824802 384.64711941 -171.7875055 382.18713809 -171.79289246 379.72715759 C-171.80597552 373.05919569 -171.81249147 366.39124744 -171.81690311 359.7232759 C-171.81967666 355.54904985 -171.82391605 351.37482608 -171.82840729 347.20060158 C-171.8405937 335.61345026 -171.85089319 324.02630076 -171.85428238 312.43914318 C-171.85450195 311.69897155 -171.85472151 310.95879992 -171.85494773 310.19619884 C-171.85516601 309.45438264 -171.85538429 308.71256645 -171.85560918 307.94827098 C-171.85605262 306.44538764 -171.85649919 304.94250431 -171.85694885 303.43962097 C-171.85717028 302.69415897 -171.85739171 301.94869697 -171.85761985 301.18064521 C-171.86156035 289.12566815 -171.8789943 277.07075182 -171.90230837 265.01579817 C-171.92612389 252.59993155 -171.9384889 240.18409526 -171.9396503 227.76820546 C-171.94056153 220.81308989 -171.94617278 213.85805339 -171.96446991 206.90295982 C-171.98164863 200.35047603 -171.98304804 193.79811449 -171.9743309 187.24560547 C-171.97356686 184.85654104 -171.97781831 182.4674682 -171.98778915 180.07842445 C-172.1754665 132.25971673 -158.0651372 87.25351614 -124.00440979 52.55656433 C-122.71594329 51.23545547 -121.45788402 49.88487606 -120.20265198 48.53215027 C-89.78436244 16.48612617 -43.5440542 -0.07324548 0 0 Z " fill="#F2F6F8" transform="translate(173.61671447753906,-0.1337127685546875)"/>
<path d="M0 0 C2.67024392 -0.00437745 5.3388349 -0.04084942 8.00878906 -0.07861328 C23.06498453 -0.17962362 35.93748918 2.33892728 49.68066406 8.68310547 C51.47667944 9.47672038 53.27357083 10.26835549 55.07128906 11.05810547 C55.94978516 11.44740234 56.82828125 11.83669922 57.73339844 12.23779297 C76.47970172 20.49356814 94.07791062 24.16128312 114.44506836 26.15893555 C122.8719543 27.0194978 131.16964336 28.23590481 139.49316406 29.80810547 C140.54898682 30.00138428 141.60480957 30.19466309 142.69262695 30.39379883 C152.93030677 32.41329765 161.07905287 35.10356129 167.11816406 44.05810547 C169.35949006 50.31022535 169.1113908 56.09361917 166.61816406 62.24560547 C164.14078124 67.15706023 161.46726476 69.61171651 156.22363281 71.45263672 C151.79912974 72.65753659 147.49145934 72.67066082 142.93066406 72.62060547 C142.05216797 72.61601318 141.17367187 72.6114209 140.26855469 72.60668945 C134.01727361 72.521496 127.92426591 71.98128216 121.73291016 71.15722656 C109.14820104 69.50912439 96.42173453 69.29032845 83.74316406 69.18310547 C82.84436523 69.17005371 81.94556641 69.15700195 81.01953125 69.14355469 C80.18454102 69.14242676 79.34955078 69.14129883 78.48925781 69.14013672 C77.38408813 69.13397339 77.38408813 69.13397339 76.2565918 69.12768555 C73.98197794 69.26310021 73.98197794 69.26310021 71.30566406 71.37060547 C73.67338259 72.49296555 76.04820481 73.59279032 78.43066406 74.68310547 C79.07648438 74.99183594 79.72230469 75.30056641 80.38769531 75.61865234 C92.88334061 81.27144426 105.52909145 81.85776362 119 81.76171875 C121.67011925 81.74566885 124.33871609 81.76163372 127.00878906 81.78076172 C142.94737504 81.80147792 157.0392317 80.07145158 171.30566406 72.37060547 C172.15386719 71.91814453 173.00207031 71.46568359 173.87597656 70.99951172 C178.22488467 68.53140149 182.15701954 65.75050465 186.07104492 62.63671875 C195.6151225 55.05329487 203.56352417 50.31909105 216.12597656 50.82763672 C220.96796123 51.65446211 223.44108831 53.4559653 226.30566406 57.37060547 C226.94955078 58.24072266 226.94955078 58.24072266 227.60644531 59.12841797 C231.05494381 64.7929619 231.38239001 70.92694321 230.30566406 77.37060547 C227.21847821 85.24584184 221.09696366 91.37848472 215.30566406 97.37060547 C214.73525391 97.97211426 214.16484375 98.57362305 213.57714844 99.19335938 C195.97650574 117.70327723 178.11439122 131.079358 152.36816406 135.30810547 C145.61701557 136.44586787 138.88665082 137.61516723 132.18066406 138.99560547 C125.57991244 140.34195503 118.97464712 141.4255111 112.30566406 142.37060547 C111.13205322 142.54084229 109.95844238 142.7110791 108.74926758 142.88647461 C99.72855651 144.11444597 90.87215292 144.74334393 81.76855469 144.74121094 C79.67334692 144.74562087 77.58019587 144.78225947 75.48535156 144.81982422 C60.62992477 144.9496419 48.38906704 140.37163843 35.11816406 133.99560547 C33.81809149 133.37991472 32.51787696 132.76452363 31.2175293 132.14941406 C16.578243 125.18666647 2.0520603 117.8733928 -12.07714844 109.92529297 C-24.85772221 102.75602314 -38.15565443 98.48285444 -52.55761719 96.01123047 C-55.69433594 95.37060547 -55.69433594 95.37060547 -60.69433594 93.37060547 C-60.69433594 65.98060547 -60.69433594 38.59060547 -60.69433594 10.37060547 C-52.80801152 6.99075215 -52.80801152 6.99075215 -48.69042969 6.05419922 C-47.33014648 5.74385742 -47.33014648 5.74385742 -45.94238281 5.42724609 C-45.01490234 5.22292969 -44.08742187 5.01861328 -43.13183594 4.80810547 C-42.23142578 4.59992188 -41.33101562 4.39173828 -40.40332031 4.17724609 C-26.86555281 1.13815543 -13.83313056 -0.00252891 0 0 Z " fill="#293040" transform="translate(226.6943359375,292.62939453125)"/>
<path d="M0 0 C1.54000667 5.23741006 2.88041167 10.49764687 4.125 15.8125 C4.30675781 16.57498047 4.48851562 17.33746094 4.67578125 18.12304688 C6 23.7534657 6 23.7534657 6 26 C6.7528125 25.95359375 7.505625 25.9071875 8.28125 25.859375 C26.16976209 25.25151294 42.99821446 31.74678184 58.22265625 40.7421875 C60.81108935 42.1549168 60.81108935 42.1549168 63.1015625 41.95703125 C65.69378052 40.65025468 67.3228313 38.92232632 69.3125 36.8125 C70.49005859 35.60400391 70.49005859 35.60400391 71.69140625 34.37109375 C72.83416016 33.19740234 72.83416016 33.19740234 74 32 C75.22934321 30.77065679 76.47689241 29.5589622 77.75 28.375 C78.51570313 27.64410156 78.51570313 27.64410156 79.296875 26.8984375 C81 26 81 26 83.45703125 26.09375 C86.61596223 27.21951342 87.79524561 28.55429474 89.9375 31.125 C90.70320312 32.01832031 91.46890625 32.91164062 92.2578125 33.83203125 C92.89831543 34.58154053 92.89831543 34.58154053 93.55175781 35.34619141 C96.96415594 39.24295219 100.57018389 42.96819122 104.12670898 46.73291016 C105.76449194 48.47683932 107.38581522 50.2342387 109 52 C109.79792969 52.87011719 110.59585938 53.74023438 111.41796875 54.63671875 C113 57 113 57 113.60546875 59.46484375 C112.70172315 63.24891403 110.17293562 65.14471092 107.3125 67.5625 C106.78205078 68.03107422 106.25160156 68.49964844 105.70507812 68.98242188 C102.54743786 71.75262162 99.29867164 74.39900659 96 77 C96.58851132 80.61422713 97.59394095 83.43302952 99.25 86.6875 C101.62475067 91.76145856 103.261559 96.86621875 104.75 102.25 C104.96043945 103.00627686 105.17087891 103.76255371 105.38769531 104.54174805 C107.42378449 112.13042901 108.17787929 119.61267529 108.5625 127.4375 C108.60568359 128.26443359 108.64886719 129.09136719 108.69335938 129.94335938 C108.79838033 131.96209549 108.89958559 133.98102951 109 136 C109.65597168 136.20157715 110.31194336 136.4031543 110.98779297 136.61083984 C113.9522348 137.52576508 116.91360807 138.45025308 119.875 139.375 C120.90753906 139.69210937 121.94007813 140.00921875 123.00390625 140.3359375 C123.99003906 140.6453125 124.97617187 140.9546875 125.9921875 141.2734375 C126.90339355 141.55622559 127.81459961 141.83901367 128.75341797 142.13037109 C131 143 131 143 133 145 C132.62049102 150.34083321 131.15143796 155.23924724 129.53125 160.3046875 C129.29088013 161.06927277 129.05051025 161.83385803 128.80285645 162.62161255 C128.29777308 164.22415165 127.79004341 165.8258589 127.27978516 167.42675781 C126.49629674 169.8866269 125.72215172 172.34929625 124.94921875 174.8125 C124.45627309 176.3725678 123.96280239 177.93246983 123.46875 179.4921875 C123.23643677 180.23064911 123.00412354 180.96911072 122.76477051 181.72994995 C121.1158216 186.8841784 121.1158216 186.8841784 120 188 C111.02477275 188.27922929 100.98313147 184.99156573 93 181 C92.773125 181.680625 92.54625 182.36125 92.3125 183.0625 C90.68773854 186.6988709 88.67196743 190.02829263 86 193 C85.34 193 84.68 193 84 193 C83.01 191.88625 83.01 191.88625 82 190.75 C72.93199772 181.49959538 53.64929389 179.98952541 41.44140625 178.4921875 C39 178 39 178 37 176 C37.65226563 175.443125 38.30453125 174.88625 38.9765625 174.3125 C50.61933405 164.14654018 59.86668578 151.69571262 61.18457031 135.76953125 C62.1906113 117.55946568 58.32172667 104.04583041 46.6875 89.75 C36.37431002 78.56784944 21.93913219 73.00523781 6.984375 71.74609375 C-8.10695907 71.18108003 -21.83905075 76.50601171 -33.25 86.25 C-43.42259537 95.90671098 -50.66603203 108.40432643 -51.23828125 122.625 C-51.45335698 133.32601336 -50.8294086 141.93070684 -47 152 C-47 152.66 -47 153.32 -47 154 C-48.28970703 153.69255859 -48.28970703 153.69255859 -49.60546875 153.37890625 C-65.06794378 149.85474346 -80.21629804 149.86186339 -96 150 C-97.87387655 140.22907228 -98.22867275 130.89644867 -98 121 C-98.83917969 120.87044922 -98.83917969 120.87044922 -99.6953125 120.73828125 C-118.56920078 117.43079922 -118.56920078 117.43079922 -123 113 C-123.30527084 108.45758657 -122.5567393 104.90707949 -121.13671875 100.60546875 C-120.74419922 99.40212891 -120.35167969 98.19878906 -119.94726562 96.95898438 C-119.53154297 95.71439453 -119.11582031 94.46980469 -118.6875 93.1875 C-118.28337891 91.95451172 -117.87925781 90.72152344 -117.46289062 89.45117188 C-116.31796124 85.96425684 -115.16151308 82.4814211 -114 79 C-113.68240723 78.04561035 -113.36481445 77.0912207 -113.03759766 76.10791016 C-112.35960419 74.07153826 -111.68003126 72.03569229 -111 70 C-105.75773229 68.11622823 -101.43435298 70.19830593 -96.4375 71.9375 C-94.75047468 72.51433731 -93.06172077 73.08614945 -91.37109375 73.65234375 C-90.62786865 73.91007568 -89.88464355 74.16780762 -89.11889648 74.43334961 C-86.72152497 75.1722323 -86.72152497 75.1722323 -83 75 C-81.52115818 73.09227751 -81.52115818 73.09227751 -80.25 70.5 C-72.63858507 57.89562699 -57.52206535 41.4676703 -42.80566406 37.39233398 C-41.91186035 37.19812866 -41.91186035 37.19812866 -41 37 C-41.18175781 36.09290283 -41.18175781 36.09290283 -41.3671875 35.16748047 C-41.91735861 32.40445768 -42.45874622 29.63978285 -43 26.875 C-43.19078125 25.92367187 -43.3815625 24.97234375 -43.578125 23.9921875 C-45.61422414 13.5208205 -45.61422414 13.5208205 -45 10 C-41.25039527 7.23591317 -37.55033878 6.20431696 -33.046875 5.17578125 C-32.38721741 5.02465378 -31.72755981 4.87352631 -31.0479126 4.71781921 C-29.6571206 4.40179824 -28.26530469 4.09025355 -26.87255859 3.78295898 C-24.76713094 3.31629702 -22.6669047 2.83010736 -20.56640625 2.34179688 C-13.64221924 0.76848209 -7.14296906 -0.42064151 0 0 Z " fill="#2A3141" transform="translate(313,133)"/>
<path d="M0 0 C12.87 0 25.74 0 39 0 C39 38.61 39 77.22 39 117 C26.13 117 13.26 117 0 117 C0 78.39 0 39.78 0 0 Z " fill="#2A3141" transform="translate(116,287)"/>
<path d="M0 0 C2.4375 1.625 2.4375 1.625 4 4 C4.72125695 8.40768137 4.52001338 10.25937488 1.9375 13.9375 C-1.74062512 16.52001338 -3.59231863 16.72125695 -8 16 C-11.27522945 13.84524379 -11.90229594 12.3358577 -13 8.5625 C-13 5 -13 5 -11.1875 2.125 C-7.34864131 -1.60417702 -5.15505453 -1.15544326 0 0 Z " fill="#ECF0F2" transform="translate(140,380)"/>
</svg>
